<svg xmlns="http://www.w3.org/2000/svg" viewBox="0 0 24 24"><path fill="#C6CCD0" d="M6.636 9.583l4.276-6.233a.5.5 0 00-.129-.696l-.824-.566a.5.5 0 00-.695.129L4.208 9.583h2.428zM19.792 9.583l-5.056-7.366a.5.5 0 00-.695-.129l-.824.566a.5.5 0 00-.129.696l4.276 6.233h2.428z"/><path fill="#2D98D4" d="M1.134 11l3.057 9.606A1.994 1.994 0 0 0 6.097 22h11.806c.875 0 1.64-.56 1.906-1.394L22.866 11H1.134z"/><path fill="#0377BE" d="M23.5 11a.5.5 0 0 0 .5-.5v-1a.5.5 0 0 0-.5-.5H.5a.5.5 0 0 0-.5.5v1a.5.5 0 0 0 .5.5h23z"/><path fill="#010101" d="M18.015 21.75H5.985c-.652 0-1.24-.305-1.617-.793.347.628.989 1.043 1.729 1.043h11.806c.74 0 1.382-.415 1.73-1.043a2.038 2.038 0 0 1-1.618.793z" opacity=".1"/><path fill="#FFF" d="M23.5 9H.5a.5.5 0 0 0-.5.5v.25a.5.5 0 0 1 .5-.5h23a.5.5 0 0 1 .5.5V9.5a.5.5 0 0 0-.5-.5z" opacity=".2"/><path fill="#010101" d="M23.5 10.75H.5a.5.5 0 0 1-.5-.5v.25a.5.5 0 0 0 .5.5h23a.5.5 0 0 0 .5-.5v-.25a.5.5 0 0 1-.5.5z" opacity=".1"/><linearGradient id="a" x1="7.322" x2="18.643" y1="6.322" y2="17.643" gradientUnits="userSpaceOnUse"><stop offset="0" stop-color="#010101" stop-opacity=".1"/><stop offset="1" stop-color="#010101" stop-opacity="0"/></linearGradient><path fill="url(#a)" d="M17.903 22c.875 0 1.64-.56 1.906-1.394L22.866 11H1.134l11 11h5.77z"/><linearGradient id="b" x1=".794" x2="21.376" y1="7.687" y2="17.285" gradientUnits="userSpaceOnUse"><stop offset="0" stop-color="#FFF" stop-opacity=".2"/><stop offset="1" stop-color="#FFF" stop-opacity="0"/></linearGradient><path fill="url(#b)" d="M23.5 9h-4.109l-4.655-6.783a.5.5 0 0 0-.695-.129l-.824.566a.5.5 0 0 0-.129.696L16.964 9H7.036l3.876-5.65a.5.5 0 0 0-.129-.696l-.824-.566a.5.5 0 0 0-.695.129L4.609 9H.5a.5.5 0 0 0-.5.5v1a.5.5 0 0 0 .5.5h.634l3.057 9.606A1.994 1.994 0 0 0 6.097 22h11.806c.875 0 1.64-.56 1.906-1.394L22.866 11h.634a.5.5 0 0 0 .5-.5v-1a.5.5 0 0 0-.5-.5z"/></svg>