<svg xmlns="http://www.w3.org/2000/svg" viewBox="0 0 64 64"><path fill="#ffa725" d="M59,44.5v.09A8.66,8.66,0,0,1,50.25,53H13.75A8.66,8.66,0,0,1,5,44.59V44.5C5,38.93,9,34,15.29,30.77h0A34,34,0,0,1,25.62,27.5,40,40,0,0,1,32,27h.67a39.79,39.79,0,0,1,8.49,1h0a37.06,37.06,0,0,1,4.18,1.26A29.31,29.31,0,0,1,50.88,32C55.89,35.17,59,39.6,59,44.5Z"/><path fill="#ffa725" d="M59,44.5v.09A8.66,8.66,0,0,1,50.25,53H13.75A8.66,8.66,0,0,1,5,44.59V44.5a12,12,0,0,1,.2-2.16c.89-4.68,4.64-8.8,10.09-11.57h0A34,34,0,0,1,25.62,27.5,40,40,0,0,1,32,27h.67a39.79,39.79,0,0,1,8.49,1h0a37.06,37.06,0,0,1,4.18,1.26A29.31,29.31,0,0,1,50.88,32c4.27,2.7,7.16,6.31,7.91,10.36A10.86,10.86,0,0,1,59,44.5Z"/><path fill="#ffbe46" d="M58.79,42.36A8.75,8.75,0,0,1,50.25,49H13.75A8.76,8.76,0,0,1,5.2,42.34c.89-4.68,4.64-8.8,10.09-11.57h0A34,34,0,0,1,25.62,27.5,40,40,0,0,1,32,27h.67a39.79,39.79,0,0,1,8.49,1h0a37.06,37.06,0,0,1,4.18,1.26A29.31,29.31,0,0,1,50.88,32C55.15,34.7,58,38.31,58.79,42.36Z"/><path fill="#ff8b2a" d="M41.16 28a12 12 0 0 0-11 10.19 2 2 0 1 1-4-.51A16.07 16.07 0 0 1 32.67 27 39.79 39.79 0 0 1 41.16 28zM25.62 27.5A11.49 11.49 0 0 0 22 29.26a12 12 0 0 0-4.88 8.05A1.92 1.92 0 0 1 15.24 39H15a1.89 1.89 0 0 1-1.87-2.16 15.9 15.9 0 0 1 2.14-6.07h0A34 34 0 0 1 25.62 27.5zM50.88 32a9 9 0 0 0-8.74 7.41 2 2 0 0 1-2 1.59 2 2 0 0 1-2-2 2.16 2.16 0 0 1 0-.35 13 13 0 0 1 7.14-9.37A29.31 29.31 0 0 1 50.88 32z"/><path fill="#3f0a1a" d="M50.25,54H13.75A9.65,9.65,0,0,1,4,44.6a13.54,13.54,0,0,1,2.61-7.94,1,1,0,1,1,1.64,1.15A11.52,11.52,0,0,0,6,44.5,7.65,7.65,0,0,0,13.75,52h36.5A7.64,7.64,0,0,0,58,44.58c0-4.47-2.72-8.61-7.65-11.74A28.6,28.6,0,0,0,45,30.23,34.69,34.69,0,0,0,41,29l-.06,0a39,39,0,0,0-8.27-1H32a38.31,38.31,0,0,0-6.22.49,32.91,32.91,0,0,0-9.92,3.1l-.12.07a23.35,23.35,0,0,0-5,3.38,1,1,0,0,1-1.34-1.48,24.93,24.93,0,0,1,5.33-3.62l.11-.07a35,35,0,0,1,10.64-3.36A40.84,40.84,0,0,1,32,26h.71a41.39,41.39,0,0,1,8.63,1l.06,0a38.36,38.36,0,0,1,4.3,1.29,30.44,30.44,0,0,1,5.72,2.81C57,34.66,60,39.4,60,44.5A9.67,9.67,0,0,1,50.25,54Z"/><path fill="#3f0a1a" d="M50.25,54H13.75A9.65,9.65,0,0,1,4,44.6a13.54,13.54,0,0,1,2.61-7.94,1,1,0,1,1,1.64,1.15A11.52,11.52,0,0,0,6,44.5,7.65,7.65,0,0,0,13.75,52h36.5A7.64,7.64,0,0,0,58,44.58c0-4.47-2.72-8.61-7.65-11.74A28.6,28.6,0,0,0,45,30.23,34.69,34.69,0,0,0,41,29l-.06,0a39,39,0,0,0-8.27-1H32a38.31,38.31,0,0,0-6.22.49,32.91,32.91,0,0,0-9.92,3.1l-.12.07a23.35,23.35,0,0,0-5,3.38,1,1,0,0,1-1.34-1.48,24.93,24.93,0,0,1,5.33-3.62l.11-.07a35,35,0,0,1,10.64-3.36A40.84,40.84,0,0,1,32,26h.71a41.39,41.39,0,0,1,8.63,1l.06,0a38.36,38.36,0,0,1,4.3,1.29,30.44,30.44,0,0,1,5.72,2.81C57,34.66,60,39.4,60,44.5A9.67,9.67,0,0,1,50.25,54Z"/><path fill="#3f0a1a" d="M28.15 41a3 3 0 0 1-3-3.43A17.16 17.16 0 0 1 32.08 26.2a.92.92 0 0 1 .6-.19 40.54 40.54 0 0 1 8.71 1 1 1 0 0 1 .77 1.05 1 1 0 0 1-.93.92 11 11 0 0 0-10.11 9.34A3 3 0 0 1 28.15 41zM33 28a15.16 15.16 0 0 0-5.84 9.83 1 1 0 0 0 .24.8 1 1 0 0 0 .76.35 1 1 0 0 0 1-.93 13 13 0 0 1 3.11-6.66 13.28 13.28 0 0 1 4.2-3.17C35.31 28.12 34.15 28 33 28zM15.24 40H15a2.89 2.89 0 0 1-2.86-3.3 16.83 16.83 0 0 1 2.24-6.39 1.07 1.07 0 0 1 .43-.44 35 35 0 0 1 10.64-3.36 1 1 0 0 1 .42 1.95 10.58 10.58 0 0 0-3.31 1.61 11.1 11.1 0 0 0-4.47 7.38A2.91 2.91 0 0 1 15.24 40zM16 31.52A14.89 14.89 0 0 0 14.14 37 .88.88 0 0 0 15 38h.22a.91.91 0 0 0 .89-.83A13 13 0 0 1 19.64 30 30.85 30.85 0 0 0 16 31.52zM40.19 42a3 3 0 0 1-3-3.5 14.07 14.07 0 0 1 7.69-10.11 1 1 0 0 1 .79 0 30.44 30.44 0 0 1 5.72 2.81A1 1 0 0 1 50.89 33a7.89 7.89 0 0 0-4.69 1.61A1 1 0 1 1 45 33a10.09 10.09 0 0 1 2.92-1.53c-.8-.39-1.64-.76-2.51-1.1a12.06 12.06 0 0 0-6.22 8.46s0 .11 0 .17a1 1 0 0 0 1 1 1 1 0 0 0 1-.77 9.5 9.5 0 0 1 1-2.95 1 1 0 0 1 1.74 1 7.93 7.93 0 0 0-.82 2.34A3 3 0 0 1 40.19 42z"/><path fill="#ff8b2a" d="M48.39,50H15.61a12.83,12.83,0,0,1-7.16-2.17,1,1,0,1,1,1.1-1.66A10.9,10.9,0,0,0,15.61,48H48.39a10.9,10.9,0,0,0,6.06-1.83,1,1,0,0,1,1.1,1.66A12.83,12.83,0,0,1,48.39,50Z"/><path fill="#ffbe46" d="M21 24.24a1 1 0 0 1-.71-.29 4 4 0 0 1 0-5.66 2 2 0 0 0 .59-1.41 2 2 0 0 0-.59-1.42 1 1 0 0 1 0-1.41 1 1 0 0 1 1.42 0 4 4 0 0 1 0 5.66 2 2 0 0 0-.59 1.41 2 2 0 0 0 .59 1.42 1 1 0 0 1 0 1.41A1 1 0 0 1 21 24.24zM32 20.24a1 1 0 0 1-.71-.29 4 4 0 0 1 0-5.66 2 2 0 0 0 .59-1.41 2 2 0 0 0-.59-1.42 1 1 0 0 1 0-1.41 1 1 0 0 1 1.42 0 4 4 0 0 1 0 5.66 2 2 0 0 0-.59 1.41 2 2 0 0 0 .59 1.42 1 1 0 0 1 0 1.41A1 1 0 0 1 32 20.24zM43 23.24a1 1 0 0 1-.71-.29 4 4 0 0 1 0-5.66 2 2 0 0 0 .59-1.41 2 2 0 0 0-.59-1.42 1 1 0 0 1 0-1.41 1 1 0 0 1 1.42 0 4 4 0 0 1 0 5.66 2 2 0 0 0-.59 1.41 2 2 0 0 0 .59 1.42 1 1 0 0 1 0 1.41A1 1 0 0 1 43 23.24z"/></svg>